<svg class="" width="16" height="22" viewBox="0 0 16 22" fill="none" xmlns="http://www.w3.org/2000/svg">
              <path
                d="M15.869 10.088C15.7006 9.82741 15.4647 9.67851 15.1615 9.67851C14.5887 9.67851 13.9149 9.93909 13.4095 10.3113C12.9378 10.6836 12.2303 11.3536 11.6238 12.5076C11.5227 12.731 11.3206 12.8799 11.1184 12.9171C11.1184 12.8799 11.1184 12.8054 11.1184 12.7682C11.1184 12.6565 11.1184 12.5076 11.1184 12.3587V4.09475C11.1184 3.2758 10.512 2.60575 9.77072 2.60575C9.02949 2.60575 8.42303 3.2758 8.42303 4.09475V9.86464C8.42303 9.97631 8.35564 10.0508 8.25457 10.0508C8.15349 10.0508 8.0861 9.97631 8.0861 9.86464V1.489C8.0861 0.670051 7.47964 0 6.73841 0C5.99718 0 5.39072 0.670051 5.39072 1.489V9.86464C5.39072 9.97631 5.32333 10.0508 5.22225 10.0508C5.12118 10.0508 5.05379 9.97631 5.05379 9.86464V3.16413C5.05379 2.45685 4.51471 1.86125 3.87456 1.86125C3.2344 1.86125 2.69533 2.45685 2.69533 3.16413V10.6091C2.69533 10.7208 2.62794 10.7953 2.52687 10.7953C2.42579 10.7953 2.3584 10.7208 2.3584 10.6091V5.95601C2.3584 5.24873 1.81933 4.65313 1.17917 4.65313C0.539017 4.65313 -6.10352e-05 5.24873 -6.10352e-05 5.95601V16.0812C0.336862 21.2927 3.20071 22 5.99718 22C8.28826 22 10.3772 20.7343 11.388 18.7242C11.5227 18.5008 11.8596 17.868 12.2976 17.1235C13.3421 15.2995 14.2181 13.7733 14.3529 13.4755C14.6561 12.8799 14.9593 12.3959 15.2963 12.0981C15.5995 11.8376 15.768 11.5025 15.9027 11.2047C16.0038 11.0558 16.0712 10.4975 15.869 10.088Z"
                fill="white" />
            </svg>